<svg id="sid-svg" class="sid-painter" xmlns="http://www.w3.org/2000/svg" viewBox="0 0 226.77 226.77" >
    
    <path d="M123.92,39H137.6c0,.59,0,1.19,0,1.79q0,56.7,0,113.39a14.26,14.26,0,0,1-1.27,6.14,45.23,45.23,0,0,1-2.13,4.16c-6.85,11.5-19.71,16.14-32,11.44-7.87-3-13-8.94-16.4-16.45a10.39,10.39,0,0,1-1-4.63q.29-12.42.44-24.82.19-14.7.3-29.39a15.18,15.18,0,0,1,7.88-13.78c8.85-5.16,21.15-1.33,24.86,10.77a4.37,4.37,0,0,1,.15,1.3q0,25.44,0,50.88c0,1.06-.35,1.39-1.39,1.37-3.48-.05-7,0-10.44,0-1.69,0-1.69,0-1.69-1.71,0-15.88,0-31.76,0-47.63a3.41,3.41,0,0,0-1.85-3.24,2.55,2.55,0,0,0-4,2.23q-.24,16.91-.45,33.82c-.07,5-.09,9.92-.26,14.87-.11,3.25-.08,6.4,2.4,8.93.28.28.5.61.77.91,5.44,6.11,13.69,6.49,19,.8a11.88,11.88,0,0,0,3.48-8.47q-.15-55.5-.07-111C124,40.13,124,39.57,123.92,39Z"
          />
    <path d="M101.66,77.88a14.67,14.67,0,1,1,14.77-14.57A14.59,14.59,0,0,1,101.66,77.88ZM92.89,63.17a8.87,8.87,0,1,0,8.85-8.85A9,9,0,0,0,92.89,63.17Z"
          />
    <path d="M72.54,131.23a24.13,24.13,0,0,1-21,36.1H27.64a23,23,0,0,1-23-23H21.15a6.5,6.5,0,0,0,4.39,6.14h26a7.23,7.23,0,1,0,0-14.45H28.73a24.13,24.13,0,1,1,0-48.26H53.08a23,23,0,0,1,23,23H59.57a6.51,6.51,0,0,0-4.39-6.15H28.73a7.23,7.23,0,0,0,0,14.45H51.58A24.22,24.22,0,0,1,72.54,131.23Z"
          />
    <path d="M222.17,127.68a40.49,40.49,0,0,1-.43,5.85,39.94,39.94,0,0,1-34.62,33.78l-.19,0H149.87V116.47h16.9v34h19a23.1,23.1,0,0,0,19-18,23.54,23.54,0,0,0,.49-4.74,23.1,23.1,0,0,0-18.43-22.56,24.18,24.18,0,0,0-3.52-.43H149.87V87.75l35.42.13a39.93,39.93,0,0,1,36.48,34.18A40.3,40.3,0,0,1,222.17,127.68Z"
          />
</svg>